<svg width="13" height="14" viewBox="0 0 13 14" fill="none" xmlns="http://www.w3.org/2000/svg">
<path fill-rule="evenodd" clip-rule="evenodd" d="M11.5 0.8125C11.6823 0.8125 11.8572 0.884933 11.9861 1.01386C12.1151 1.1428 12.1875 1.31766 12.1875 1.5V12.5C12.1875 12.6823 12.1151 12.8572 11.9861 12.9861C11.8572 13.1151 11.6823 13.1875 11.5 13.1875C11.3177 13.1875 11.1428 13.1151 11.0139 12.9861C10.8849 12.8572 10.8125 12.6823 10.8125 12.5V1.5C10.8125 1.31766 10.8849 1.1428 11.0139 1.01386C11.1428 0.884933 11.3177 0.8125 11.5 0.8125V0.8125Z" fill="#999999"/>
<path d="M10.9445 7.95837L2.19537 13.0349C1.45287 13.4652 0.5 12.9441 0.5 12.0765V1.92349C0.5 1.05724 1.4515 0.53474 2.19537 0.96649L10.9445 6.04299C11.1134 6.13941 11.2538 6.27879 11.3515 6.44698C11.4491 6.61517 11.5005 6.80619 11.5005 7.00068C11.5005 7.19516 11.4491 7.38619 11.3515 7.55438C11.2538 7.72257 11.1134 7.86195 10.9445 7.95837V7.95837Z" fill="#999999"/>
</svg>
