<svg width="13" height="14" viewBox="0 0 13 14" fill="none" xmlns="http://www.w3.org/2000/svg">
<path fill-rule="evenodd" clip-rule="evenodd" d="M1.1875 13.1882C1.00516 13.1882 0.830295 13.1158 0.701364 12.9869C0.572432 12.8579 0.5 12.6831 0.5 12.5007L0.5 1.50073C0.5 1.3184 0.572432 1.14353 0.701364 1.0146C0.830295 0.885665 1.00516 0.813232 1.1875 0.813232C1.36984 0.813232 1.54471 0.885665 1.67364 1.0146C1.80257 1.14353 1.875 1.3184 1.875 1.50073L1.875 12.5007C1.875 12.6831 1.80257 12.8579 1.67364 12.9869C1.54471 13.1158 1.36984 13.1882 1.1875 13.1882V13.1882Z" fill="white"/>
<path d="M1.743 6.04237L10.4921 0.965865C11.2346 0.53549 12.1875 1.05661 12.1875 1.92424L12.1875 12.0772C12.1875 12.9435 11.236 13.466 10.4921 13.0342L1.743 7.95774C1.5741 7.86132 1.4337 7.72195 1.33605 7.55376C1.2384 7.38556 1.18696 7.19454 1.18696 7.00005C1.18696 6.80557 1.2384 6.61454 1.33605 6.44635C1.4337 6.27816 1.5741 6.13879 1.743 6.04237V6.04237Z" fill="white"/>
</svg>
