<svg width="11" height="6" viewBox="0 0 11 6" fill="none" xmlns="http://www.w3.org/2000/svg">
<path fill-rule="evenodd" clip-rule="evenodd" d="M1.00974 0.893428C1.05543 0.738175 1.13533 0.620179 1.23192 0.565313C1.32851 0.510446 1.43391 0.523186 1.525 0.60074L5.96781 4.38993L10.4098 0.599428C10.455 0.560028 10.5043 0.536284 10.5549 0.529566C10.6055 0.522847 10.6564 0.533286 10.7046 0.560282C10.7528 0.587278 10.7975 0.630296 10.8359 0.686856C10.8743 0.743416 10.9058 0.812399 10.9285 0.889829C10.9513 0.967259 10.9648 1.0516 10.9684 1.138C10.9719 1.22439 10.9654 1.31113 10.9492 1.39322C10.933 1.4753 10.9075 1.5511 10.874 1.61625C10.8406 1.68139 10.7999 1.7346 10.7544 1.7728L6.14007 5.7103C6.0866 5.75603 6.02762 5.77984 5.96781 5.77984C5.908 5.77984 5.84901 5.75603 5.79554 5.7103L1.18123 1.7728C1.09027 1.69482 1.02113 1.55846 0.988978 1.39362C0.956829 1.22877 0.964294 1.04889 1.00974 0.893428Z" fill="black"/>
</svg>
